<?xml version="1.0" standalone="no"?>
<!DOCTYPE svg PUBLIC "-//W3C//DTD SVG 20010904//EN"
 "http://www.w3.org/TR/2001/REC-SVG-20010904/DTD/svg10.dtd">
<svg version="1.0" xmlns="http://www.w3.org/2000/svg"
 width="700.000000pt" height="700.000000pt" viewBox="0 0 700.000000 700.000000"
 preserveAspectRatio="xMidYMid meet">
<metadata>
Created by potrace 1.14, written by Peter Selinger 2001-2017
</metadata>
<g transform="translate(0.000000,700.000000) scale(0.100000,-0.100000)"
fill="#000000" stroke="none">
<path d="M3962 5853 c-7 -3 -19 -17 -27 -32 -18 -36 -1592 -4361 -1596 -4386
-6 -37 11 -75 40 -90 59 -30 583 -215 610 -215 16 0 37 10 49 23 28 29 1612
4377 1612 4423 0 18 -8 41 -17 53 -12 13 -120 58 -308 126 -265 96 -327 113
-363 98z"/>
<path d="M1048 4222 l-678 -677 0 -45 0 -45 673 -672 c662 -663 673 -673 712
-673 38 0 47 8 268 228 126 125 235 241 243 259 10 24 11 39 3 60 -5 15 -194
213 -419 438 l-410 410 406 405 c226 226 412 419 420 437 10 24 11 39 3 60
-12 32 -430 457 -471 479 -15 8 -37 14 -50 14 -17 0 -198 -175 -700 -678z"/>
<path d="M4963 4657 c-235 -234 -243 -244 -243 -282 0 -38 9 -48 417 -457
l418 -418 -418 -418 c-408 -408 -417 -418 -417 -457 0 -38 8 -47 238 -277 230
-230 239 -238 277 -238 39 0 50 10 711 671 494 494 674 679 678 700 3 16 1 41
-5 57 -11 31 -1300 1326 -1341 1348 -56 29 -61 26 -315 -229z"/>
</g>
</svg>
