<?xml version="1.0" standalone="no"?>
<!DOCTYPE svg PUBLIC "-//W3C//DTD SVG 20010904//EN"
 "http://www.w3.org/TR/2001/REC-SVG-20010904/DTD/svg10.dtd">
<svg version="1.0" xmlns="http://www.w3.org/2000/svg"
 width="800.000000pt" height="800.000000pt" viewBox="0 0 800.000000 800.000000"
 preserveAspectRatio="xMidYMid meet">
<metadata>
Created by potrace 1.14, written by Peter Selinger 2001-2017
</metadata>
<g transform="translate(0.000000,800.000000) scale(0.100000,-0.100000)"
fill="#000000" stroke="none">
<path d="M0 4000 l0 -4000 4000 0 4000 0 0 4000 0 4000 -4000 0 -4000 0 0
-4000z m4889 2596 c425 -155 399 -144 416 -176 8 -16 15 -38 15 -49 0 -10
-408 -1139 -906 -2508 -498 -1368 -911 -2501 -916 -2516 -11 -30 -53 -57 -89
-57 -12 0 -173 55 -358 122 -372 136 -385 143 -379 213 3 31 1747 4842 1814
5005 18 44 51 69 88 70 16 0 157 -47 315 -104z m-2562 -1279 c246 -246 273
-276 273 -306 0 -18 -5 -42 -11 -54 -6 -12 -221 -232 -477 -489 l-467 -468
478 -478 c435 -435 477 -480 477 -510 0 -18 -6 -45 -14 -60 -16 -29 -485 -499
-526 -526 -13 -9 -40 -16 -60 -16 -33 0 -77 42 -802 767 -811 811 -791 789
-774 860 5 19 247 268 754 777 411 411 761 757 777 768 64 41 74 35 372 -265z
m4475 -494 l768 -768 0 -43 c0 -24 -6 -55 -14 -70 -16 -29 -1475 -1489 -1516
-1516 -13 -9 -40 -16 -59 -16 -33 0 -55 20 -308 272 -287 286 -301 305 -273
359 7 13 223 236 481 494 l469 470 -475 475 c-507 507 -505 504 -472 566 17
31 509 524 542 543 11 6 36 9 55 6 30 -4 130 -100 802 -772z"/>
</g>
</svg>
